<svg width="32" height="32" viewBox="0 0 32 32" fill="none" xmlns="http://www.w3.org/2000/svg">
  <path d="M31.50 16.00 L31.48 19.88 L31.44 21.49 L31.36 22.71 L31.25 23.73 L31.12 24.62 L30.95 25.40 L30.74 26.11 L30.51 26.76 L30.24 27.35 L29.94 27.88 L29.61 28.38 L29.23 28.82 L28.82 29.23 L28.38 29.61 L27.88 29.94 L27.35 30.24 L26.76 30.51 L26.11 30.74 L25.40 30.95 L24.62 31.12 L23.73 31.25 L22.71 31.36 L21.49 31.44 L19.88 31.48 L16.02 31.50 L12.12 31.48 L10.51 31.44 L9.29 31.36 L8.27 31.25 L7.38 31.12 L6.60 30.95 L5.89 30.74 L5.24 30.51 L4.65 30.24 L4.12 29.94 L3.62 29.61 L3.18 29.23 L2.77 28.82 L2.39 28.38 L2.06 27.88 L1.76 27.35 L1.49 26.76 L1.26 26.11 L1.05 25.40 L0.88 24.62 L0.75 23.73 L0.64 22.71 L0.56 21.49 L0.52 19.88 L0.50 16.03 L0.52 12.12 L0.56 10.51 L0.64 9.29 L0.75 8.27 L0.88 7.38 L1.05 6.60 L1.26 5.89 L1.49 5.24 L1.76 4.65 L2.06 4.12 L2.39 3.63 L2.77 3.18 L3.18 2.77 L3.62 2.39 L4.12 2.06 L4.65 1.76 L5.24 1.49 L5.89 1.26 L6.60 1.05 L7.38 0.88 L8.27 0.75 L9.29 0.64 L10.51 0.56 L12.12 0.52 L15.97 0.50 L19.88 0.52 L21.49 0.56 L22.71 0.64 L23.73 0.75 L24.62 0.88 L25.40 1.05 L26.11 1.26 L26.76 1.49 L27.35 1.76 L27.88 2.06 L28.37 2.39 L28.82 2.77 L29.23 3.18 L29.61 3.62 L29.94 4.12 L30.24 4.65 L30.51 5.24 L30.74 5.89 L30.95 6.60 L31.12 7.38 L31.25 8.27 L31.36 9.29 L31.44 10.51 L31.48 12.12 L31.50 15.96 Z" fill="black"/>
  <path d="M12 11L7 16L12 21" stroke="white" stroke-width="2" stroke-linecap="round" stroke-linejoin="round"/>
  <path d="M20 11L25 16L20 21" stroke="white" stroke-width="2" stroke-linecap="round" stroke-linejoin="round"/>
  <path d="M18 7L14 25" stroke="#4A4A4A" stroke-width="2" stroke-linecap="round" stroke-linejoin="round"/>
</svg>
